<?xml version="1.0" encoding="utf-8"?>
<!-- Generator: Adobe Illustrator 30.1.0, SVG Export Plug-In . SVG Version: 9.03 Build 0)  -->
<svg version="1.0" id="Layer_1" xmlns="http://www.w3.org/2000/svg" xmlns:xlink="http://www.w3.org/1999/xlink" x="0px" y="0px"
	 viewBox="0 0 2000 1000" enable-background="new 0 0 2000 1000" xml:space="preserve">
<g>
	<g>
		<g>
			<path fill="#5090CF" d="M449.1,427.8c16.1-3.6,32.8-3.1,49.1-2.1c49.3,4.1,97.3,18.3,143.2,36c63.4,24.5,123.3,56.7,181.1,91.8
				c4.8,2.7,10.9,6.3,15.8,8.8c21.3,11.2,43.8,20.9,66.6,28.7c84.6,29.1,175.4,37.6,264.4,32.3c8.2-0.5,16.3-1.2,24.4-2.1
				c-32.2,6.4-65,8.9-97.8,9.7c-84.3,1.2-170.1-12.7-246.9-48.7c-5.2-2.3-14.3-7.2-19.5-9.7c-1.7-0.9-6.4-3.6-8.2-4.6
				c-3.1-1.8-7.8-4.3-10.8-6.2C748.2,523.7,683,488.5,615,461.9c-37.9-14.5-76.9-26.9-117.2-32.7
				C481.7,427.2,465.3,425.6,449.1,427.8L449.1,427.8z"/>
		</g>
		<g>
			<path fill="#5090CF" d="M364.5,435.8c47.5-14.7,95.7-28.5,145.4-33.3c34.2-3.4,68.9-2.6,103,1.9c24.6,3.4,49.5,8.6,73.5,15.1
				c63.2,17.3,123.1,44.8,182.6,71.6c56.4,25.4,112,53,171.2,71c55.9,17,114.7,24,173,20.8c77.1-4.7,151.8-30.9,218.8-68.9
				c21.6-12.2,42.5-25.6,62.9-39.8c-19.7,15.2-40.1,29.5-61.3,42.5c-73,45-157,74.4-243.2,76.3c-51.7,0.9-103.7-5.6-153.3-20.5
				c-83.5-25.6-160.4-67.9-240.5-101.9c-33.8-14.9-68.5-28.9-103.8-39.5c-30.7-9.5-62.7-16.7-94.7-20.7c-29.1-3.6-58.4-4.5-87.7-2.4
				C460.9,411.2,412.4,423.5,364.5,435.8L364.5,435.8z"/>
		</g>
		<g>
			<path fill="#5090CF" d="M953.6,471.7c112.8,50.9,219.5,75.4,341.5,41.5c42.5-12.1,83.3-29,124-46.1
				c26.9-11.6,55.3-23.8,83.6-31.4c35.9-9.9,73.3-16.5,110.6-12.5c7.4,0.7,14.8,1.6,22.1,2.8c-14.7-0.8-29.6-1.3-44.3-0.4
				c-36.7,2.5-72.3,13-106.7,25.5c-20.8,7.6-40.6,17.5-60.7,26.5c-40.7,18.3-82.1,35.8-125.1,48.1
				C1175.9,559.9,1062.4,533.1,953.6,471.7L953.6,471.7z"/>
		</g>
		<g>
			<path fill="#5090CF" d="M1023,492.9c57.2,13.8,118.1,18.1,175.5,3.4c12.6-3.3,24.5-8.1,36.5-13.3c18.2-7.9,36.4-16.1,54.7-23.8
				c24.5-10.4,49.1-20.3,73.9-29.9c12.4-4.8,24.8-9.5,37.3-14.1c25.3-9,50.3-18.2,76.8-23.5c53.7-8.6,108.5-0.6,157.8,19.2
				c-25.5-7.2-51.6-12.2-77.8-13.8c-13.1-0.9-26.2-1-39.3-0.2c-12.9,0.9-26,2.1-38.6,4.9c-7.8,1.7-15.8,4.2-23.4,6.6
				c-29.7,9.8-58.9,21.4-88.1,32.9c-24.2,9.6-49.6,19.8-73.6,29.8c-18.4,7.6-36.6,15.5-55.1,23c-12.4,5.1-25.3,9.8-38.5,12.9
				C1142,520,1079.7,512.9,1023,492.9L1023,492.9z"/>
		</g>
		<path fill="none" stroke="#231F20" stroke-width="11.2007" stroke-linecap="square" stroke-miterlimit="10" d="M1554.7,268.4"/>
		<g>
			<path fill="none" stroke="#474B50" stroke-width="11.2007" stroke-linecap="square" stroke-miterlimit="10" d="M739.8,172.3
				l-68,126.3c0,0,193.1-3.2,334.4,132.1c0,0,137.4-125,331.2-123.8l-66.1-134.7c0,0-175.6,18-266.7,107.1
				C1004.5,282.5,918,184.4,739.8,172.3z"/>
			
				<line fill="none" stroke="#474B50" stroke-width="11.2007" stroke-linecap="square" stroke-miterlimit="10" x1="1004.5" y1="282.5" x2="1004.5" y2="430.7"/>
			<path fill="none" stroke="#474B50" stroke-width="11.2007" stroke-linecap="square" stroke-miterlimit="10" d="M706.7,226.7
				l-46.4-3.1l-74.1,118.6c0,0,271.5-26.3,419.1,99.4c0,0,184.2-125.7,422.1-89.8l-75.8-125l-50.6-3.2"/>
			<g>
				<path fill="#474B50" d="M525.3,376.8C658.7,353.6,810.3,363,937,412.7c8.3,3.1,20.5,8.5,28.7,12.1c6.8,3.2,14.3,6.8,21,10.1
					c4.7,2.5,15.8,8.5,20.6,11.1c0,0-2.7-0.7-2.7-0.7c-0.4-0.1-1.4,0.2-1.7,0.3c0,0,0,0,0,0c3.3-1.5,8.7-4,12.1-5.6
					c64.4-28.8,133.5-46.7,203.5-55.2c74.4-9,150.3-6.6,223.9,7.5c-9.3-1.2-18.5-2.3-27.8-3.1c-64.8-6.5-130.5-5.1-194.9,4
					c-68.7,10-136.6,28.3-200,56.9c-3.4,1.6-8.6,4-12,5.6c0,0-0.6,0.3-0.6,0.3l-0.2,0.1c-1,0.4-2.5,0.5-3.6,0.5
					c-36-20-73.9-36.7-113.4-48.9c-48.5-15.6-99.1-25.4-149.7-31.2C668.8,368.9,596.5,368.2,525.3,376.8L525.3,376.8z"/>
			</g>
		</g>
	</g>
	<g>
		<g>
			<g>
				<path fill="#474B50" d="M200.7,732.3l-1.7,0.4c-2.1-7.1-6.5-12.8-13.1-17.3c-6.6-4.5-14-6.7-22.3-6.7h-5.8
					c-1.7,0-3.1,0.5-4.2,1.6c-1.1,1-1.7,2.3-1.7,3.8v86.6c0,2.8,1.1,5.1,3.3,7.1c2.2,2,4.9,3,8,3c0.4,0,0.6,0.2,0.6,0.5v1.1
					c0,0.3-0.2,0.5-0.6,0.5h-39.6c-0.4,0-0.7-0.2-0.7-0.5v-1.1c0-0.3,0.2-0.5,0.7-0.5c3.1,0,5.8-1,8-3c2.2-2,3.3-4.3,3.3-7.1V714
					c0-1.5-0.6-2.7-1.8-3.8s-2.6-1.6-4.3-1.6h-6.7c-8.4,0-15.9,2.2-22.7,6.6c-6.7,4.4-11.3,10.1-13.7,17.2l-1.8-0.4
					c-0.4-0.1-0.5-0.3-0.4-0.7l8.5-24.5c0.1-0.2,0.3-0.4,0.6-0.4h100.2c0.3,0,0.5,0.1,0.6,0.4l7.5,24.6
					C201.3,732,201.2,732.2,200.7,732.3z"/>
				<path fill="#474B50" d="M303.5,796.9c0.4,0,0.6,0.2,0.6,0.5c-0.1,2.1-0.4,4.2-0.9,6.2c-0.6,2-1.4,4-2.6,5.9
					c-1.2,1.9-2.9,3.5-5.2,4.6c-2.3,1.2-4.9,1.7-8,1.7c-4,0-7.6-1.3-10.8-3.8c-3.2-2.5-5.6-6.6-7.2-12c-0.8-2.7-2.1-7.7-4.1-15
					c-2-7.3-3.1-11.6-3.5-13c-0.9-3.3-1.7-6-2.4-8.2c-0.7-2.2-1.5-4.7-2.5-7.3c-0.9-2.6-1.9-4.8-2.7-6.5c-0.9-1.7-1.9-3.4-3.1-5
					c-1.2-1.7-2.4-3-3.6-3.8c-1.3-0.9-2.7-1.5-4.3-1.9c-1.6-0.4-3.3-0.5-5.1-0.2c-1.8,0.3-3.8,1.8-5.9,4.5
					c-3.2,4.1-4.8,8.8-4.8,14.2v42.8c0,2.8,1.1,5.1,3.3,7.1c2.2,2,4.9,3,8,3c0.4,0,0.6,0.2,0.6,0.5v1.1c0,0.3-0.2,0.5-0.6,0.5h-37.2
					c-0.4,0-0.7-0.2-0.7-0.5v-1.1c0-0.3,0.2-0.5,0.7-0.5c3.1,0,5.8-1,8-3c2.2-2,3.3-4.3,3.3-7.1v-97.4c0-0.4-0.3-0.6-0.8-0.5
					l-14,3.9c-0.6,0.1-0.8-0.1-0.8-0.5v-1c0-0.2,0.1-0.3,0.4-0.4l28.8-8.2c0.6-0.1,0.8,0.1,0.8,0.5v49c0,0.3,0.2,0.5,0.5,0.5
					c0.3,0,0.5,0,0.6-0.3c1.7-3,3.9-5.5,6.8-7.6c2.9-2,6.2-3,10.1-3c3.1,0,5.9,0.4,8.5,1.1c2.6,0.7,4.9,1.7,6.9,3
					c2,1.2,3.8,2.9,5.5,4.9s3.1,4.1,4.3,6.2c1.2,2.1,2.3,4.7,3.4,7.6c1.1,2.9,2,5.7,2.7,8.4c0.7,2.7,1.5,5.8,2.3,9.2
					c0.5,2.2,1.6,6.4,3.3,12.4c1.7,6,2.6,9.3,2.7,9.7c1.5,5.3,2.8,9,4,10.9c1.1,2,2.6,2.9,4.5,2.9c1.3,0,2.6-0.5,3.6-1.6
					c1.1-1.1,2-2.4,2.6-4c0.6-1.6,1.1-3.1,1.5-4.7c0.3-1.5,0.5-2.9,0.6-4.2c0-0.3,0.2-0.5,0.7-0.5H303.5z"/>
				<path fill="#474B50" d="M382.3,755.2c0.4,0.6,0.2,1.1-0.5,1.4l-51.7,26.5c-1.3,0.6-2.2,1.6-2.6,2.7c-0.5,1.2-0.5,2.4,0,3.6
					c3,7.5,7.1,13.3,12.2,17.6c5.1,4.3,10.4,6,15.7,5.2c4.9-0.7,9-2.4,12.4-5c3.3-2.6,6.9-6.9,10.7-13c0.2-0.3,0.5-0.4,0.8-0.2
					l1.8,0.9c0.4,0.2,0.5,0.4,0.3,0.7c-3.5,6.3-8.1,11.2-13.9,14.9c-5.7,3.6-12.2,5.4-19.4,5.4c-7.1,0-13.8-1.8-19.8-5.4
					c-6.1-3.6-10.9-8.5-14.4-14.7c-3.5-6.2-5.3-13-5.3-20.3c0-7.3,1.8-14.1,5.3-20.3c3.5-6.2,8.4-11.1,14.4-14.7
					c6.1-3.6,12.7-5.4,19.8-5.4c7,0,13.4,1.7,19.4,5.2c5.9,3.4,10.7,8.1,14.3,13.9L382.3,755.2z M368,761.3c0.3-0.1,0.4-0.4,0.3-0.7
					c-3.1-7.2-7.1-12.8-12.1-16.8c-5-4-10.1-5.6-15.3-4.9c-4.3,0.6-7.9,2.9-10.9,6.8c-3,3.9-4.9,8.7-5.8,14.5
					c-0.9,5.8-0.8,12.1,0.4,19c0.1,0.5,0.3,1.6,0.7,3c0.1,0.5,0.4,0.6,0.9,0.4L368,761.3z"/>
			</g>
			<g>
				<path fill="#474B50" d="M601,707.2v1c0,0.3-0.2,0.5-0.6,0.5c-3.5,0-6.7,0.9-9.5,2.7c-2.8,1.8-4.8,4.2-5.9,7.2l-35.7,97
					c-0.1,0.2-0.3,0.4-0.5,0.4h-4c-0.3,0-0.5-0.1-0.6-0.4l-25.7-69.9c-0.1-0.2-0.2-0.4-0.5-0.4c-0.3,0-0.5,0.1-0.6,0.4l-25.7,69.9
					c-0.1,0.2-0.3,0.4-0.6,0.4h-4c-0.2,0-0.4-0.1-0.5-0.4l-35.8-97.4c-1.1-2.9-3-5.2-5.7-6.9c-2.7-1.8-5.8-2.6-9.2-2.6
					c-0.4,0-0.6-0.2-0.6-0.5v-1c0-0.4,0.2-0.6,0.6-0.6h39.6c0.4,0,0.6,0.2,0.6,0.6v1c0,0.3-0.2,0.5-0.6,0.5c-2.6,0-4.6,0.9-6.2,2.8
					c-1.5,1.9-1.9,3.9-1.1,6.1l27.9,76.1c0.1,0.2,0.3,0.4,0.6,0.4c0.3,0,0.5-0.1,0.6-0.4l19.3-52.6c0.1-0.2,0.1-0.4,0-0.7l-8.1-22.2
					c-1.1-2.9-3-5.2-5.7-6.9c-2.7-1.8-5.8-2.6-9.2-2.6c-0.4,0-0.6-0.2-0.6-0.5v-1c0-0.4,0.2-0.6,0.6-0.6h39.6c0.4,0,0.6,0.2,0.6,0.6
					v1c0,0.3-0.2,0.5-0.6,0.5c-2.6,0-4.6,0.9-6.2,2.8c-1.5,1.9-1.9,3.9-1.1,6.1l27.9,76.1c0.1,0.2,0.3,0.4,0.6,0.4
					c0.3,0,0.5-0.1,0.6-0.4l27.8-75.8c0.8-2.3,0.5-4.4-1.1-6.3c-1.6-1.9-3.7-2.9-6.4-2.9c-0.4,0-0.6-0.2-0.6-0.5v-1
					c0-0.4,0.2-0.6,0.6-0.6h25.2C600.8,706.6,601,706.8,601,707.2z"/>
				<path fill="#474B50" d="M679.3,796.9h2.3c0,1.7-0.2,3.3-0.5,5c-0.3,1.6-0.9,3.3-1.6,5.1c-0.8,1.8-1.8,3.3-3,4.6
					c-1.2,1.3-2.8,2.3-4.9,3.2c-2,0.8-4.3,1.3-6.8,1.3c-4,0-7.6-1.3-10.8-3.8c-3.2-2.5-5.6-6.6-7.2-12c0-0.1,0-0.3-0.1-0.6
					c-0.1-0.3-0.2-0.5-0.2-0.6c-1.7,1.8-3.6,3.5-5.7,5.2c-2.1,1.7-4.7,3.5-8,5.4c-3.2,2-6.9,3.5-11.1,4.7c-4.2,1.2-8.4,1.8-12.8,1.8
					c-2.1,0-4.2-0.3-6.4-0.9c-2.1-0.6-4.2-1.6-6.2-2.9c-2-1.3-3.7-3.1-4.9-5.6c-1.3-2.4-1.9-5.3-1.9-8.5c0-3.3,0.9-6.5,2.6-9.5
					c1.7-3,4-5.7,6.8-7.9c2.8-2.2,5.9-4.2,9.2-6.2c3.3-1.9,6.7-3.5,10.1-4.7c3.4-1.2,6.5-2.3,9.3-3.2c2.8-0.9,5.1-1.5,6.8-1.9
					l2.6-0.6c-2.6-8.5-5.5-14.7-8.7-18.8c-3.2-4.1-7.4-6.2-12.7-6.2c-3.9,0-7.7,1-11.6,3.1c-3.9,2.1-6.9,4.4-9,7.1
					c-0.3,0.4-0.8,0.5-1.3,0.3c-0.6-0.2-0.8-0.5-0.8-1c0-0.1,0.1-0.3,0.2-0.5c2.2-3.4,5.8-6.3,10.9-8.9c5.1-2.5,11.4-3.8,19-3.8
					c3.1,0,5.9,0.4,8.5,1.1c2.6,0.7,4.9,1.7,6.9,3c2,1.2,3.8,2.9,5.5,4.9s3.1,4.1,4.3,6.2c1.2,2.1,2.3,4.7,3.4,7.6
					c1.1,2.9,2,5.7,2.7,8.4c0.7,2.7,1.5,5.8,2.3,9.2c0.5,2.2,1.6,6.3,3.3,12.3c1.7,6,2.6,9.3,2.7,9.7c1.5,5.3,2.8,9,4,10.9
					c1.1,2,2.6,2.9,4.5,2.9c1.8,0,3.4-1,4.7-3c1.4-2,2.3-4.1,2.8-6.2C679.1,800.5,679.3,798.6,679.3,796.9z M619.3,806.5
					c3.8,0,7.3-0.4,10.5-1.1c3.2-0.8,5.8-1.8,7.9-3c2.1-1.2,3.7-2.4,4.9-3.4c1.2-1,2.2-2.1,3.1-3.3c-0.4-1.7-1.1-4.2-2.1-7.7
					c-0.9-3.5-1.8-6.5-2.5-9.2c-0.8-2.7-1.4-4.9-1.8-6.6c-0.4-1.4-1-3.5-1.8-6.2c-2.2,0.7-4.5,1.5-6.7,2.3c-2.2,0.9-4.9,2.1-8.1,3.8
					c-3.2,1.7-5.9,3.4-8.2,5.3c-2.3,1.9-4.3,4.1-6,6.9c-1.7,2.7-2.5,5.5-2.5,8.5c0,3.7,1.1,6.9,3.3,9.6
					C611.6,805.1,614.9,806.5,619.3,806.5z"/>
				<path fill="#474B50" d="M731.5,796.9h1.2c0.4,0,0.7,0.2,0.7,0.5c-0.1,2.8-0.9,5.5-2.5,8.3c-1.5,2.7-3.9,5.1-7.1,7.2
					c-3.2,2-6.8,3.1-10.8,3.1c-1.3,0-2.4,0-3.5-0.1c-1-0.1-2.3-0.3-3.9-0.6c-1.6-0.3-2.9-0.8-4.1-1.4s-2.4-1.5-3.7-2.6
					c-1.3-1.2-2.4-2.5-3.3-4.1c-0.9-1.6-1.6-3.6-2.2-6.1c-0.6-2.5-0.9-5.2-1-8.3v-51.6c0-0.3-0.2-0.5-0.6-0.5h-16.8
					c-0.4,0-0.6-0.2-0.6-0.5v-1.6c9.4,0,16.5-1.5,21.1-4.4c4.7-2.9,7.6-8.4,8.8-16.3c0-0.3,0.2-0.4,0.6-0.4h1.3
					c0.4,0,0.6,0.2,0.6,0.5v20.2c0,0.3,0.2,0.5,0.6,0.5h22.9c0.4,0,0.6,0.2,0.6,0.6v1c0,0.3-0.2,0.5-0.6,0.5h-22.9
					c-0.4,0-0.6,0.2-0.6,0.5v50.5c0,4.1,0.3,7.5,1,10.3c0.6,2.8,1.6,4.9,2.8,6.3c1.2,1.4,2.5,2.3,3.8,2.9c1.3,0.5,2.8,0.8,4.4,0.8
					c3.6,0,6.6-1.7,9.1-5c2.5-3.4,3.9-6.5,4.1-9.3C730.9,797.1,731.1,796.9,731.5,796.9z"/>
				<path fill="#474B50" d="M884.6,738.4c0.5,0.1,0.6,0.3,0.4,0.7l-9.8,16.2c-0.1,0.2-0.3,0.3-0.5,0.3c-0.3,0-0.4-0.2-0.5-0.4
					c-1.8-6.2-4.8-10.4-9-12.8c-4.2-2.3-9.1-2.5-14.7-0.6c-4.4,1.5-7.8,4.1-10.4,7.6c-2.6,3.5-3.9,7.4-3.9,11.6v39.6
					c0,2.8,1.1,5.1,3.3,7.1c2.2,2,4.9,3,8,3c0.4,0,0.6,0.2,0.6,0.5v1.1c0,0.3-0.2,0.5-0.6,0.5h-37.2c-0.4,0-0.7-0.2-0.7-0.5v-1.1
					c0-0.3,0.2-0.5,0.7-0.5c3.1,0,5.8-1,8-3c2.2-2,3.3-4.3,3.3-7.1v-10c0-0.2-0.2-0.4-0.5-0.5c-0.3-0.1-0.5,0-0.7,0.3
					c-11.3,17.1-25.8,25.6-43.3,25.6c-7.1,0-13.8-1.8-19.8-5.4c-6.1-3.6-10.9-8.5-14.4-14.7c-3.5-6.2-5.3-13-5.3-20.3
					c0-7.3,1.8-14.1,5.3-20.3c3.5-6.2,8.4-11.1,14.4-14.7c6.1-3.6,12.7-5.4,19.8-5.4c7,0,13.4,1.7,19.4,5.2
					c5.9,3.4,10.7,8.1,14.3,13.9l0.5,0.9c0.4,0.6,0.2,1.1-0.5,1.4l-51.7,26.5c-1.3,0.6-2.2,1.6-2.6,2.7c-0.5,1.2-0.5,2.4,0,3.6
					c2.9,7.2,6.9,12.8,11.9,16.8c5.1,4,10.4,6,16,6c8.2,0,15.8-3.4,22.9-10.2c4.6-4.4,8.2-9.5,10.6-15.2c2.4-5.7,3.6-11.6,3.6-17.8
					v-26.5c0-0.4-0.3-0.6-0.8-0.5l-14,3.8c-0.6,0.1-0.8-0.1-0.8-0.5v-1c0-0.2,0.1-0.4,0.4-0.5l28.8-8.2c0.6-0.1,0.8,0.1,0.8,0.5
					v11.6c0,0.2,0.1,0.4,0.4,0.5c0.3,0.1,0.5,0,0.7-0.2c3.1-3.6,6.6-6.4,10.3-8.5c3.7-2,7.7-3.3,11.8-3.9c4.1-0.5,8.2-0.5,12.3-0.1
					C875.7,736.2,880,737.1,884.6,738.4z M754.3,782.4c0.1,0.5,0.4,0.6,0.9,0.4l42-21.4c0.3-0.1,0.4-0.4,0.3-0.7
					c-3.1-7.2-7.1-12.8-12.1-16.8c-5-4-10.1-5.6-15.3-4.9c-4.3,0.6-7.9,2.9-10.9,6.8c-3,3.9-4.9,8.7-5.8,14.5
					c-0.9,5.8-0.8,12.1,0.4,19C753.7,779.9,753.9,780.9,754.3,782.4z"/>
			</g>
		</g>
		<path fill="#474B50" d="M1106,796.8c-1.1,3.7-2.5,7.3-4.2,10.6c-1.7,3.5-4,6.5-6.6,9c-2.8,2.6-5.9,4.6-9.5,6.1
			c-3.5,1.4-7.7,2.1-12.6,2.1c-7.4-0.1-14.7-2-22-5.7c-7.2-3.7-13.8-8-19.9-13c-6.5,5.8-13.5,10.5-21.1,14.3
			c-7.7,3.7-15.7,6.1-24.1,7.2c-3.3,0.4-6.9,0.5-10.8,0.4c-3.6-0.1-7-0.5-10.2-1.4c-3.3-0.9-6.4-2.2-9-3.8c-2.7-1.6-4.9-3.8-6.7-6.5
			c-3.6-5.1-5.8-10.4-6.4-16c-0.7-5.7,0.5-11.4,3.5-17.3c3.4-7,8.9-13.2,16.3-18.7c7.5-5.5,16-10.4,25.4-14.6
			c-3.6-7.9-5.8-16.2-6.6-24.8c-0.9-8.6,0.6-16.3,4.4-23.2c3.2-5.6,7.7-9.8,13.5-12.6c5.7-2.8,12.2-4.1,19.4-4.1
			c5.9,0,10.8,1,14.8,3.1c3.9,2,6.6,4.7,8.2,8.1c1.6,3.5,2,7.4,1.3,11.5c-0.8,4.3-2.9,8.7-6.2,13.1c-3.4,4.5-8.1,8.9-14,13.2
			c-6.2,4.5-13.7,8.4-22.3,11.7c2.4,4.9,5,9.5,7.9,14c2.8,4.2,6,8.9,9.8,14.1c2.5,3.4,5.9,7.8,10.4,13.1c3.6,4.3,6.9,7.9,9.7,10.8
			c3.1-3.2,6-6.8,8.6-10.9c2.2-3.3,4.4-7.3,6.7-11.9c4.5-9.2,8.9-16.9,13.3-23.1c4.4-6.4,8.4-11.2,11.9-14.5c3.6-3.5,7-6.1,10.1-7.7
			c3-1.6,5.6-2.6,7.6-3.1c2.2-0.4,3.8-0.5,5-0.3l1.9,0.4l2.2,14.5l-2-1.1c-1.4-0.8-3.2-1.4-5.5-1.6c-2.5-0.3-5.3-0.2-8.4,0.4
			c-3.1,0.6-6.6,2.2-10.4,4.8c-4.1,2.8-8.1,6.6-12,11.4c-4.4,5.4-8.6,12.2-12.5,20.4c-2,4-4.2,8-6.9,12c-2.3,3.6-5.2,7.3-8.7,11.1
			c3.6,3.5,6.5,6.1,8.7,7.9c3.2,2.6,6.5,5,9.8,7.2c3.1,2.1,6.6,3.9,10.4,5.4c3.6,1.5,7.2,2.3,10.7,2.6c4,0.3,7.5-0.4,10.4-1.9
			c2.9-1.5,5.4-3.5,7.5-5.8c2.2-2.4,4-5.1,5.2-8c1.6-3.6,2.7-6.5,3.4-8.8L1106,796.8z M988.3,750.5c-6.7,3.4-12.6,7.4-17.6,11.9
			c-5,4.6-8.8,9.6-11.3,15.1c-1.7,3.9-2.5,7.7-2.5,11.5c0,3.8,0.8,7.4,2.3,10.8c1.7,3.7,3.8,6.8,6.5,9.3c2.9,2.8,6.4,4.9,10.6,6.5
			c4.5,1.7,9.1,2.7,13.8,2.9c4.9,0.2,9.6-0.2,14-1.3c4.9-1.1,9.4-2.7,13.5-4.7c4.4-2.2,8.5-4.8,12.2-7.7c-4.2-3.6-8.1-7.3-11.5-11.1
			c-4.1-4.4-7.9-8.9-11.4-13.4c-3.8-4.9-7.3-9.9-10.3-14.7C992.9,759.9,990.2,754.8,988.3,750.5z M999.7,744.4
			c9.2-3.5,16.5-7.9,22-13c5.6-5.2,9.4-10.4,11.5-15.6c2-4.2,2.9-8.6,2.7-13.3c-0.1-4.8-1.7-8.7-4.8-11.9c-1.6-1.7-3.6-3-5.9-3.8
			c-2.3-0.8-4.7-1.2-7.2-1.2c-2.4,0-4.8,0.3-7.2,0.9c-2.7,0.6-4.9,1.4-6.5,2.2c-5.3,2.8-8.9,6.5-10.9,11.1c-2,4.6-2.8,9.5-2.4,14.9
			c0.4,5.7,1.3,11,2.9,15.9C995.7,736,997.6,740.6,999.7,744.4z"/>
		<g>
			<g>
				<path fill="#474B50" d="M1290,732.4l-1.7,0.4c-2.1-7.1-6.5-12.8-13.1-17.3c-6.6-4.5-14-6.7-22.3-6.7h-5.8
					c-1.7,0-3.1,0.5-4.2,1.6c-1.1,1-1.7,2.3-1.7,3.8v86.6c0,2.8,1.1,5.1,3.3,7.1c2.2,2,4.9,3,8,3c0.4,0,0.6,0.2,0.6,0.5v1.1
					c0,0.3-0.2,0.5-0.6,0.5h-39.6c-0.4,0-0.7-0.2-0.7-0.5v-1.1c0-0.3,0.2-0.5,0.7-0.5c3.1,0,5.8-1,8-3c2.2-2,3.3-4.3,3.3-7.1v-86.6
					c0-1.5-0.6-2.7-1.8-3.8s-2.6-1.6-4.3-1.6h-6.7c-8.4,0-15.9,2.2-22.7,6.6c-6.7,4.4-11.3,10.1-13.7,17.2l-1.8-0.4
					c-0.4-0.1-0.5-0.3-0.4-0.7l8.5-24.5c0.1-0.2,0.3-0.4,0.6-0.4h100.2c0.3,0,0.5,0.1,0.6,0.4l7.5,24.6
					C1290.6,732,1290.5,732.3,1290,732.4z"/>
				<path fill="#474B50" d="M1392.8,797c0.4,0,0.6,0.2,0.6,0.5c-0.1,2.1-0.4,4.2-0.9,6.2c-0.6,2-1.4,4-2.6,5.9
					c-1.2,1.9-2.9,3.5-5.2,4.6c-2.3,1.2-4.9,1.7-8,1.7c-4,0-7.6-1.3-10.8-3.8c-3.2-2.5-5.6-6.6-7.2-12c-0.8-2.7-2.1-7.7-4.1-15
					c-2-7.3-3.1-11.6-3.5-13c-0.9-3.3-1.7-6-2.4-8.2c-0.7-2.2-1.5-4.7-2.5-7.3c-0.9-2.6-1.9-4.8-2.7-6.5c-0.9-1.7-1.9-3.4-3.1-5
					c-1.2-1.7-2.4-3-3.6-3.8c-1.3-0.9-2.7-1.5-4.3-1.9c-1.6-0.4-3.3-0.5-5.2-0.2c-1.8,0.3-3.8,1.8-5.9,4.5
					c-3.2,4.1-4.8,8.8-4.8,14.2v42.8c0,2.8,1.1,5.1,3.3,7.1c2.2,2,4.9,3,8,3c0.4,0,0.6,0.2,0.6,0.5v1.1c0,0.3-0.2,0.5-0.6,0.5h-37.2
					c-0.4,0-0.7-0.2-0.7-0.5v-1.1c0-0.3,0.2-0.5,0.7-0.5c3.1,0,5.8-1,8-3c2.2-2,3.3-4.3,3.3-7.1v-97.4c0-0.4-0.3-0.6-0.8-0.5
					l-14,3.9c-0.6,0.1-0.8-0.1-0.8-0.5v-1c0-0.2,0.1-0.3,0.4-0.4l28.8-8.2c0.6-0.1,0.8,0.1,0.8,0.5v49c0,0.3,0.2,0.5,0.5,0.5
					c0.3,0,0.5,0,0.6-0.3c1.7-3,3.9-5.5,6.8-7.6c2.9-2,6.2-3,10.1-3c3.1,0,5.9,0.4,8.5,1.1s4.9,1.7,6.9,3c2,1.2,3.8,2.9,5.5,4.9
					c1.7,2,3.1,4.1,4.3,6.2c1.2,2.1,2.3,4.7,3.4,7.6c1.1,2.9,2,5.7,2.7,8.4c0.7,2.7,1.5,5.8,2.3,9.2c0.5,2.2,1.6,6.4,3.3,12.4
					c1.7,6,2.6,9.3,2.7,9.7c1.5,5.3,2.8,9,4,10.9c1.1,2,2.6,2.9,4.5,2.9c1.3,0,2.6-0.5,3.6-1.6c1.1-1.1,2-2.4,2.6-4
					c0.6-1.6,1.1-3.1,1.5-4.7c0.3-1.5,0.5-2.9,0.6-4.2c0-0.3,0.2-0.5,0.7-0.5H1392.8z"/>
				<path fill="#474B50" d="M1471.6,755.3c0.4,0.6,0.2,1.1-0.5,1.4l-51.7,26.5c-1.3,0.6-2.2,1.6-2.6,2.7c-0.5,1.2-0.5,2.4,0,3.6
					c3,7.5,7.1,13.3,12.2,17.6c5.1,4.3,10.4,6,15.7,5.2c4.9-0.7,9-2.4,12.4-5c3.3-2.6,6.9-6.9,10.7-13c0.2-0.3,0.5-0.4,0.8-0.2
					l1.8,0.9c0.4,0.2,0.5,0.4,0.2,0.7c-3.5,6.3-8.1,11.2-13.9,14.9c-5.7,3.6-12.2,5.4-19.4,5.4c-7.1,0-13.8-1.8-19.8-5.4
					c-6.1-3.6-10.9-8.5-14.4-14.7c-3.5-6.2-5.3-13-5.3-20.3c0-7.3,1.8-14.1,5.3-20.3c3.5-6.2,8.4-11.1,14.4-14.7
					c6.1-3.6,12.7-5.4,19.8-5.4c7,0,13.4,1.7,19.4,5.2c5.9,3.4,10.7,8.1,14.3,13.9L1471.6,755.3z M1457.3,761.4
					c0.3-0.1,0.4-0.4,0.2-0.7c-3.1-7.2-7.1-12.8-12.1-16.8c-5-4-10.1-5.6-15.3-4.9c-4.3,0.6-7.9,2.9-10.9,6.8
					c-3,3.9-4.9,8.7-5.8,14.5c-0.9,5.8-0.8,12.1,0.4,19c0.1,0.5,0.3,1.6,0.7,3c0.1,0.5,0.4,0.6,0.9,0.4L1457.3,761.4z"/>
			</g>
			<g>
				<path fill="#474B50" d="M1680.3,707.2v1c0,0.3-0.2,0.5-0.6,0.5c-3.5,0-6.7,0.9-9.5,2.7c-2.8,1.8-4.8,4.2-5.9,7.2l-35.7,97
					c-0.1,0.2-0.3,0.4-0.5,0.4h-4c-0.3,0-0.5-0.1-0.6-0.4l-25.7-69.9c-0.1-0.2-0.2-0.4-0.5-0.4s-0.5,0.1-0.6,0.4l-25.7,69.9
					c-0.1,0.2-0.3,0.4-0.6,0.4h-4c-0.2,0-0.4-0.1-0.5-0.4l-35.8-97.4c-1.1-2.9-3-5.2-5.7-6.9c-2.7-1.8-5.8-2.6-9.2-2.6
					c-0.4,0-0.6-0.2-0.6-0.5v-1c0-0.4,0.2-0.6,0.6-0.6h39.6c0.4,0,0.6,0.2,0.6,0.6v1c0,0.3-0.2,0.5-0.6,0.5c-2.6,0-4.6,0.9-6.2,2.8
					c-1.5,1.9-1.9,3.9-1.1,6.1l27.9,76.1c0.1,0.2,0.3,0.4,0.6,0.4s0.5-0.1,0.6-0.4l19.3-52.6c0.1-0.2,0.1-0.4,0-0.7l-8.1-22.2
					c-1.1-2.9-3-5.2-5.7-6.9c-2.7-1.8-5.8-2.6-9.2-2.6c-0.4,0-0.6-0.2-0.6-0.5v-1c0-0.4,0.2-0.6,0.6-0.6h39.6c0.4,0,0.6,0.2,0.6,0.6
					v1c0,0.3-0.2,0.5-0.6,0.5c-2.6,0-4.6,0.9-6.2,2.8c-1.5,1.9-1.9,3.9-1.1,6.1l27.9,76.1c0.1,0.2,0.3,0.4,0.6,0.4s0.5-0.1,0.6-0.4
					l27.8-75.8c0.8-2.3,0.5-4.4-1.1-6.3c-1.6-1.9-3.7-2.9-6.4-2.9c-0.4,0-0.6-0.2-0.6-0.5v-1c0-0.4,0.2-0.6,0.6-0.6h25.2
					C1680.1,706.6,1680.3,706.8,1680.3,707.2z"/>
				<path fill="#474B50" d="M1689.4,740.7c6.1-3.6,12.7-5.4,19.8-5.4c7.1,0,13.8,1.8,19.8,5.4c6.1,3.6,10.9,8.5,14.4,14.7
					c3.5,6.2,5.3,13,5.3,20.3c0,7.3-1.8,14.1-5.3,20.3c-3.5,6.2-8.4,11.1-14.4,14.7c-6.1,3.6-12.7,5.4-19.8,5.4
					c-7.1,0-13.8-1.8-19.8-5.4c-6.1-3.6-10.9-8.5-14.4-14.7c-3.5-6.2-5.3-13-5.3-20.3c0-7.3,1.8-14.1,5.3-20.3
					C1678.5,749.2,1683.3,744.3,1689.4,740.7z M1716.5,812.3c4.3-0.6,8-2.9,11-6.8s5-8.7,5.9-14.5c0.9-5.8,0.8-12.1-0.4-19
					c-2-10.1-6-18.3-12.1-24.8c-6.1-6.4-12.4-9.1-18.9-8.2c-4.3,0.6-7.9,2.9-10.9,6.8c-3,3.9-4.9,8.7-5.8,14.5
					c-0.9,5.8-0.8,12.1,0.4,19c2,10.1,6,18.4,12.1,24.8C1703.7,810.6,1710,813.3,1716.5,812.3z"/>
				<path fill="#474B50" d="M1828.4,738.5c0.5,0.1,0.6,0.3,0.4,0.7l-9.8,16.2c-0.1,0.2-0.3,0.3-0.5,0.3c-0.3,0-0.4-0.2-0.5-0.4
					c-1.8-6.2-4.8-10.4-9-12.8c-4.2-2.3-9.1-2.5-14.7-0.6c-4.4,1.5-7.8,4.1-10.4,7.6c-2.6,3.5-3.9,7.4-3.9,11.6v39.6
					c0,2.8,1.1,5.1,3.3,7.1c2.2,2,4.9,3,8,3c0.4,0,0.6,0.2,0.6,0.5v1.1c0,0.3-0.2,0.5-0.6,0.5h-37.2c-0.4,0-0.7-0.2-0.7-0.5v-1.1
					c0-0.3,0.2-0.5,0.7-0.5c3.1,0,5.8-1,8-3c2.2-2,3.3-4.3,3.3-7.1v-58c0-0.4-0.3-0.6-0.8-0.5l-14,3.8c-0.6,0.1-0.8-0.1-0.8-0.5v-1
					c0-0.2,0.1-0.4,0.4-0.5l28.8-8.2c0.6-0.1,0.8,0.1,0.8,0.5v11.6c0,0.2,0.1,0.4,0.4,0.5s0.5,0,0.7-0.2c3.1-3.6,6.6-6.4,10.3-8.5
					c3.7-2,7.7-3.3,11.8-3.9c4.1-0.5,8.2-0.5,12.3-0.1C1819.5,736.3,1823.8,737.2,1828.4,738.5z"/>
				<path fill="#474B50" d="M1915.5,802.3c0.4,0,0.6,0.2,0.6,0.5c-0.2,3.8-1.8,7-5,9.5s-7.1,3.7-11.8,3.7c-5.1,0-9-1.8-11.6-5.4
					c-0.2-0.4-0.5-0.4-0.8-0.1c-0.4,0.3-1.1,0.7-2,1.2c-5.8,3-11.8,4.4-18,4.4c-7.1,0-13.8-1.8-19.8-5.4
					c-6.1-3.6-10.9-8.5-14.4-14.7c-3.5-6.2-5.3-13-5.3-20.3c0-7.3,1.8-14.1,5.3-20.3c3.5-6.2,8.4-11.1,14.4-14.7
					c6.1-3.6,12.7-5.4,19.8-5.4c6,0,11.7,1.3,17.2,4c0.2,0.1,0.4,0.1,0.6,0c0.2-0.1,0.2-0.2,0.2-0.4v-35.7c0-0.4-0.2-0.6-0.8-0.5
					l-14.1,3.9c-0.5,0.1-0.8-0.1-0.8-0.5v-1c0-0.2,0.1-0.4,0.4-0.5l28.8-8.2c0.5-0.1,0.8,0.1,0.8,0.5V798c0,9.2,2,13.9,6.1,13.9
					c2.1,0,4-1,5.7-2.9c1.6-2,2.5-4,2.6-6.2c0-0.3,0.2-0.4,0.6-0.4H1915.5z M1874.3,813.3c1.1-0.1,1.9-0.3,2.4-0.4
					c0.6-0.1,1.4-0.5,2.6-1.1c1.2-0.6,2.1-1.3,2.8-2.1c0.7-0.8,1.3-2.1,1.8-3.7c0.6-1.7,0.8-3.6,0.8-5.8v-42.7
					c0-5.8-2.6-10.5-7.7-14.1c-5.1-3.6-10.9-4.7-17.2-3.3h-0.2l-0.2,0.1c-6.5,1.5-11.3,6.1-14.5,13.8c-3.2,7.7-3.8,16.5-1.8,26.5
					c2,10.1,6,18.4,12.1,24.8C1861.5,811.6,1867.8,814.3,1874.3,813.3z"/>
			</g>
		</g>
	</g>
</g>
</svg>
