<?xml version="1.0" encoding="UTF-8"?><svg id="Layer_6_copy" xmlns="http://www.w3.org/2000/svg" viewBox="0 0 1832.64 661.6"><defs><style>.cls-1{fill:#fff;}.cls-2{fill:none;stroke:#fff;stroke-linecap:square;stroke-miterlimit:10;stroke-width:11.2px;}</style></defs><g id="Main_Water_copy"><path class="cls-2" d="M654.2,6.07l-68,126.3s193.1-3.2,334.4,132.1c0,0,137.4-125,331.2-123.8L1185.7,5.97s-175.6,18-266.7,107.1c-.1,3.2-86.6-94.9-264.8-107Z"/><line class="cls-2" x1="920.9" y1="116.27" x2="920.9" y2="264.47"/><path class="cls-2" d="M621.1,60.47l-46.4-3.1-74.1,118.6s271.5-26.3,419.1,99.4c0,0,184.2-125.7,422.1-89.8l-75.8-125-50.6-3.2"/><path class="cls-1" d="M918.88,296.19c36.33-19.35,75.71-35.19,115.39-46.69,48.76-14.75,99.53-23.67,150.22-28.58,71.52-6.35,141.91-10.82,212.95-.98-1.43-.28-2.88-.52-4.32-.79,2.11.28,4.22.53,6.32.82-132.97-25.52-284.72-18.77-412.26,28.71-8.35,2.95-20.65,8.14-28.91,11.6-6.85,3.08-14.42,6.55-21.17,9.73-4.06,2.07-12.32,6.62-17.8,9.47-5.38-3.04-13.48-7.87-17.46-10.08-6.64-3.42-14.08-7.15-20.82-10.46-8.14-3.74-20.24-9.35-28.48-12.6-125.81-51.9-277.23-63.95-411.01-43.08,2.11-.22,4.23-.4,6.35-.6-1.45.22-2.9.41-4.35.64,71.34-7.36,141.53-.43,212.79,8.41,50.49,6.68,100.91,17.36,149.13,33.81,39.26,12.88,77.75,30.08,113.37,50.68"/><path class="cls-1" d="M117.24,566.07l-1.7.4c-2.1-7.1-6.5-12.8-13.1-17.3s-14-6.7-22.3-6.7h-5.8c-1.7,0-3.1.5-4.2,1.6-1.1,1-1.7,2.3-1.7,3.8v86.6c0,2.8,1.1,5.1,3.3,7.1s4.9,3,8,3c.4,0,.6.2.6.5v1.1c0,.3-.2.5-.6.5h-39.6c-.4,0-.7-.2-.7-.5v-1.1c0-.3.2-.5.7-.5,3.1,0,5.8-1,8-3,2.2-2,3.3-4.3,3.3-7.1v-86.7c0-1.5-.6-2.7-1.8-3.8s-2.6-1.6-4.3-1.6h-6.7c-8.4,0-15.9,2.2-22.7,6.6-6.7,4.4-11.3,10.1-13.7,17.2l-1.8-.4c-.4-.1-.5-.3-.4-.7l8.5-24.5c.1-.2.3-.4.6-.4h100.2c.3,0,.5.1.6.4l7.5,24.6c.4.6.3.8-.2.9Z"/><path class="cls-1" d="M220.04,630.67c.4,0,.6.2.6.5-.1,2.1-.4,4.2-.9,6.2-.6,2-1.4,4-2.6,5.9s-2.9,3.5-5.2,4.6c-2.3,1.2-4.9,1.7-8,1.7-4,0-7.6-1.3-10.8-3.8-3.2-2.5-5.6-6.6-7.2-12-.8-2.7-2.1-7.7-4.1-15s-3.1-11.6-3.5-13c-.9-3.3-1.7-6-2.4-8.2-.7-2.2-1.5-4.7-2.5-7.3-.9-2.6-1.9-4.8-2.7-6.5-.9-1.7-1.9-3.4-3.1-5-1.2-1.7-2.4-3-3.6-3.8-1.3-.9-2.7-1.5-4.3-1.9s-3.3-.5-5.1-.2-3.8,1.8-5.9,4.5c-3.2,4.1-4.8,8.8-4.8,14.2v42.8c0,2.8,1.1,5.1,3.3,7.1s4.9,3,8,3c.4,0,.6.2.6.5v1.1c0,.3-.2.5-.6.5h-37.2c-.4,0-.7-.2-.7-.5v-1.1c0-.3.2-.5.7-.5,3.1,0,5.8-1,8-3s3.3-4.3,3.3-7.1v-97.4c0-.4-.3-.6-.8-.5l-14,3.9c-.6.1-.8-.1-.8-.5v-1c0-.2.1-.3.4-.4l28.8-8.2c.6-.1.8.1.8.5v49c0,.3.2.5.5.5s.5,0,.6-.3c1.7-3,3.9-5.5,6.8-7.6,2.9-2,6.2-3,10.1-3,3.1,0,5.9.4,8.5,1.1,2.6.7,4.9,1.7,6.9,3,2,1.2,3.8,2.9,5.5,4.9s3.1,4.1,4.3,6.2c1.2,2.1,2.3,4.7,3.4,7.6,1.1,2.9,2,5.7,2.7,8.4s1.5,5.8,2.3,9.2c.5,2.2,1.6,6.4,3.3,12.4,1.7,6,2.6,9.3,2.7,9.7,1.5,5.3,2.8,9,4,10.9,1.1,2,2.6,2.9,4.5,2.9,1.3,0,2.6-.5,3.6-1.6,1.1-1.1,2-2.4,2.6-4s1.1-3.1,1.5-4.7c.3-1.5.5-2.9.6-4.2,0-.3.2-.5.7-.5h1.2Z"/><path class="cls-1" d="M298.84,588.97c.4.6.2,1.1-.5,1.4l-51.7,26.5c-1.3.6-2.2,1.6-2.6,2.7-.5,1.2-.5,2.4,0,3.6,3,7.5,7.1,13.3,12.2,17.6s10.4,6,15.7,5.2c4.9-.7,9-2.4,12.4-5,3.3-2.6,6.9-6.9,10.7-13,.2-.3.5-.4.8-.2l1.8.9c.4.2.5.4.3.7-3.5,6.3-8.1,11.2-13.9,14.9-5.7,3.6-12.2,5.4-19.4,5.4s-13.8-1.8-19.8-5.4c-6.1-3.6-10.9-8.5-14.4-14.7s-5.3-13-5.3-20.3,1.8-14.1,5.3-20.3,8.4-11.1,14.4-14.7c6.1-3.6,12.7-5.4,19.8-5.4s13.4,1.7,19.4,5.2c5.9,3.4,10.7,8.1,14.3,13.9l.5,1ZM284.54,595.07c.3-.1.4-.4.3-.7-3.1-7.2-7.1-12.8-12.1-16.8s-10.1-5.6-15.3-4.9c-4.3.6-7.9,2.9-10.9,6.8-3,3.9-4.9,8.7-5.8,14.5s-.8,12.1.4,19c.1.5.3,1.6.7,3,.1.5.4.6.9.4l41.8-21.3Z"/><path class="cls-1" d="M517.54,540.97v1c0,.3-.2.5-.6.5-3.5,0-6.7.9-9.5,2.7s-4.8,4.2-5.9,7.2l-35.7,97c-.1.2-.3.4-.5.4h-4c-.3,0-.5-.1-.6-.4l-25.7-69.9c-.1-.2-.2-.4-.5-.4s-.5.1-.6.4l-25.7,69.9c-.1.2-.3.4-.6.4h-4c-.2,0-.4-.1-.5-.4l-35.8-97.4c-1.1-2.9-3-5.2-5.7-6.9-2.7-1.8-5.8-2.6-9.2-2.6-.4,0-.6-.2-.6-.5v-1c0-.4.2-.6.6-.6h39.6c.4,0,.6.2.6.6v1c0,.3-.2.5-.6.5-2.6,0-4.6.9-6.2,2.8-1.5,1.9-1.9,3.9-1.1,6.1l27.9,76.1c.1.2.3.4.6.4s.5-.1.6-.4l19.3-52.6c.1-.2.1-.4,0-.7l-8.1-22.2c-1.1-2.9-3-5.2-5.7-6.9-2.7-1.8-5.8-2.6-9.2-2.6-.4,0-.6-.2-.6-.5v-1c0-.4.2-.6.6-.6h39.6c.4,0,.6.2.6.6v1c0,.3-.2.5-.6.5-2.6,0-4.6.9-6.2,2.8-1.5,1.9-1.9,3.9-1.1,6.1l27.9,76.1c.1.2.3.4.6.4s.5-.1.6-.4l27.8-75.8c.8-2.3.5-4.4-1.1-6.3-1.6-1.9-3.7-2.9-6.4-2.9-.4,0-.6-.2-.6-.5v-1c0-.4.2-.6.6-.6h25.2c.3,0,.5.2.5.6Z"/><path class="cls-1" d="M595.84,630.67h2.3c0,1.7-.2,3.3-.5,5-.3,1.6-.9,3.3-1.6,5.1-.8,1.8-1.8,3.3-3,4.6s-2.8,2.3-4.9,3.2c-2,.8-4.3,1.3-6.8,1.3-4,0-7.6-1.3-10.8-3.8s-5.6-6.6-7.2-12c0-.1,0-.3-.1-.6s-.2-.5-.2-.6c-1.7,1.8-3.6,3.5-5.7,5.2-2.1,1.7-4.7,3.5-8,5.4-3.2,2-6.9,3.5-11.1,4.7-4.2,1.2-8.4,1.8-12.8,1.8-2.1,0-4.2-.3-6.4-.9-2.1-.6-4.2-1.6-6.2-2.9-2-1.3-3.7-3.1-4.9-5.6-1.3-2.4-1.9-5.3-1.9-8.5s.9-6.5,2.6-9.5c1.7-3,4-5.7,6.8-7.9s5.9-4.2,9.2-6.2c3.3-1.9,6.7-3.5,10.1-4.7,3.4-1.2,6.5-2.3,9.3-3.2s5.1-1.5,6.8-1.9l2.6-.6c-2.6-8.5-5.5-14.7-8.7-18.8s-7.4-6.2-12.7-6.2c-3.9,0-7.7,1-11.6,3.1-3.9,2.1-6.9,4.4-9,7.1-.3.4-.8.5-1.3.3-.6-.2-.8-.5-.8-1,0-.1.1-.3.2-.5,2.2-3.4,5.8-6.3,10.9-8.9,5.1-2.5,11.4-3.8,19-3.8,3.1,0,5.9.4,8.5,1.1,2.6.7,4.9,1.7,6.9,3,2,1.2,3.8,2.9,5.5,4.9s3.1,4.1,4.3,6.2c1.2,2.1,2.3,4.7,3.4,7.6,1.1,2.9,2,5.7,2.7,8.4s1.5,5.8,2.3,9.2c.5,2.2,1.6,6.3,3.3,12.3s2.6,9.3,2.7,9.7c1.5,5.3,2.8,9,4,10.9,1.1,2,2.6,2.9,4.5,2.9,1.8,0,3.4-1,4.7-3,1.4-2,2.3-4.1,2.8-6.2.6-2.1.8-4,.8-5.7ZM535.84,640.27c3.8,0,7.3-.4,10.5-1.1,3.2-.8,5.8-1.8,7.9-3,2.1-1.2,3.7-2.4,4.9-3.4s2.2-2.1,3.1-3.3c-.4-1.7-1.1-4.2-2.1-7.7-.9-3.5-1.8-6.5-2.5-9.2-.8-2.7-1.4-4.9-1.8-6.6-.4-1.4-1-3.5-1.8-6.2-2.2.7-4.5,1.5-6.7,2.3-2.2.9-4.9,2.1-8.1,3.8-3.2,1.7-5.9,3.4-8.2,5.3-2.3,1.9-4.3,4.1-6,6.9-1.7,2.7-2.5,5.5-2.5,8.5,0,3.7,1.1,6.9,3.3,9.6,2.3,2.7,5.6,4.1,10,4.1Z"/><path class="cls-1" d="M648.04,630.67h1.2c.4,0,.7.2.7.5-.1,2.8-.9,5.5-2.5,8.3-1.5,2.7-3.9,5.1-7.1,7.2-3.2,2-6.8,3.1-10.8,3.1-1.3,0-2.4,0-3.5-.1-1-.1-2.3-.3-3.9-.6-1.6-.3-2.9-.8-4.1-1.4s-2.4-1.5-3.7-2.6c-1.3-1.2-2.4-2.5-3.3-4.1-.9-1.6-1.6-3.6-2.2-6.1-.6-2.5-.9-5.2-1-8.3v-51.6c0-.3-.2-.5-.6-.5h-16.8c-.4,0-.6-.2-.6-.5v-1.6c9.4,0,16.5-1.5,21.1-4.4,4.7-2.9,7.6-8.4,8.8-16.3,0-.3.2-.4.6-.4h1.3c.4,0,.6.2.6.5v20.2c0,.3.2.5.6.5h22.9c.4,0,.6.2.6.6v1c0,.3-.2.5-.6.5h-22.9c-.4,0-.6.2-.6.5v50.5c0,4.1.3,7.5,1,10.3.6,2.8,1.6,4.9,2.8,6.3,1.2,1.4,2.5,2.3,3.8,2.9,1.3.5,2.8.8,4.4.8,3.6,0,6.6-1.7,9.1-5,2.5-3.4,3.9-6.5,4.1-9.3,0-.7.2-.9.6-.9Z"/><path class="cls-1" d="M801.14,572.17c.5.1.6.3.4.7l-9.8,16.2c-.1.2-.3.3-.5.3-.3,0-.4-.2-.5-.4-1.8-6.2-4.8-10.4-9-12.8-4.2-2.3-9.1-2.5-14.7-.6-4.4,1.5-7.8,4.1-10.4,7.6-2.6,3.5-3.9,7.4-3.9,11.6v39.6c0,2.8,1.1,5.1,3.3,7.1s4.9,3,8,3c.4,0,.6.2.6.5v1.1c0,.3-.2.5-.6.5h-37.2c-.4,0-.7-.2-.7-.5v-1.1c0-.3.2-.5.7-.5,3.1,0,5.8-1,8-3s3.3-4.3,3.3-7.1v-10c0-.2-.2-.4-.5-.5s-.5,0-.7.3c-11.3,17.1-25.8,25.6-43.3,25.6-7.1,0-13.8-1.8-19.8-5.4-6.1-3.6-10.9-8.5-14.4-14.7s-5.3-13-5.3-20.3,1.8-14.1,5.3-20.3,8.4-11.1,14.4-14.7c6.1-3.6,12.7-5.4,19.8-5.4s13.4,1.7,19.4,5.2c5.9,3.4,10.7,8.1,14.3,13.9l.5.9c.4.6.2,1.1-.5,1.4l-51.7,26.5c-1.3.6-2.2,1.6-2.6,2.7-.5,1.2-.5,2.4,0,3.6,2.9,7.2,6.9,12.8,11.9,16.8,5.1,4,10.4,6,16,6,8.2,0,15.8-3.4,22.9-10.2,4.6-4.4,8.2-9.5,10.6-15.2,2.4-5.7,3.6-11.6,3.6-17.8v-26.5c0-.4-.3-.6-.8-.5l-14,3.8c-.6.1-.8-.1-.8-.5v-1c0-.2.1-.4.4-.5l28.8-8.2c.6-.1.8.1.8.5v11.6c0,.2.1.4.4.5.3.1.5,0,.7-.2,3.1-3.6,6.6-6.4,10.3-8.5,3.7-2,7.7-3.3,11.8-3.9,4.1-.5,8.2-.5,12.3-.1,4.3.7,8.6,1.6,13.2,2.9ZM670.84,616.17c.1.5.4.6.9.4l42-21.4c.3-.1.4-.4.3-.7-3.1-7.2-7.1-12.8-12.1-16.8s-10.1-5.6-15.3-4.9c-4.3.6-7.9,2.9-10.9,6.8-3,3.9-4.9,8.7-5.8,14.5-.9,5.8-.8,12.1.4,19-.1.6.1,1.6.5,3.1Z"/><path class="cls-1" d="M1022.54,630.57c-1.1,3.7-2.5,7.3-4.2,10.6-1.7,3.5-4,6.5-6.6,9-2.8,2.6-5.9,4.6-9.5,6.1-3.5,1.4-7.7,2.1-12.6,2.1-7.4-.1-14.7-2-22-5.7-7.2-3.7-13.8-8-19.9-13-6.5,5.8-13.5,10.5-21.1,14.3-7.7,3.7-15.7,6.1-24.1,7.2-3.3.4-6.9.5-10.8.4-3.6-.1-7-.5-10.2-1.4-3.3-.9-6.4-2.2-9-3.8-2.7-1.6-4.9-3.8-6.7-6.5-3.6-5.1-5.8-10.4-6.4-16-.7-5.7.5-11.4,3.5-17.3,3.4-7,8.9-13.2,16.3-18.7,7.5-5.5,16-10.4,25.4-14.6-3.6-7.9-5.8-16.2-6.6-24.8-.9-8.6.6-16.3,4.4-23.2,3.2-5.6,7.7-9.8,13.5-12.6,5.7-2.8,12.2-4.1,19.4-4.1,5.9,0,10.8,1,14.8,3.1,3.9,2,6.6,4.7,8.2,8.1,1.6,3.5,2,7.4,1.3,11.5-.8,4.3-2.9,8.7-6.2,13.1-3.4,4.5-8.1,8.9-14,13.2-6.2,4.5-13.7,8.4-22.3,11.7,2.4,4.9,5,9.5,7.9,14,2.8,4.2,6,8.9,9.8,14.1,2.5,3.4,5.9,7.8,10.4,13.1,3.6,4.3,6.9,7.9,9.7,10.8,3.1-3.2,6-6.8,8.6-10.9,2.2-3.3,4.4-7.3,6.7-11.9,4.5-9.2,8.9-16.9,13.3-23.1,4.4-6.4,8.4-11.2,11.9-14.5,3.6-3.5,7-6.1,10.1-7.7,3-1.6,5.6-2.6,7.6-3.1,2.2-.4,3.8-.5,5-.3l1.9.4,2.2,14.5-2-1.1c-1.4-.8-3.2-1.4-5.5-1.6-2.5-.3-5.3-.2-8.4.4-3.1.6-6.6,2.2-10.4,4.8-4.1,2.8-8.1,6.6-12,11.4-4.4,5.4-8.6,12.2-12.5,20.4-2,4-4.2,8-6.9,12-2.3,3.6-5.2,7.3-8.7,11.1,3.6,3.5,6.5,6.1,8.7,7.9,3.2,2.6,6.5,5,9.8,7.2,3.1,2.1,6.6,3.9,10.4,5.4,3.6,1.5,7.2,2.3,10.7,2.6,4,.3,7.5-.4,10.4-1.9s5.4-3.5,7.5-5.8c2.2-2.4,4-5.1,5.2-8,1.6-3.6,2.7-6.5,3.4-8.8l.6-.1ZM904.84,584.27c-6.7,3.4-12.6,7.4-17.6,11.9-5,4.6-8.8,9.6-11.3,15.1-1.7,3.9-2.5,7.7-2.5,11.5s.8,7.4,2.3,10.8c1.7,3.7,3.8,6.8,6.5,9.3,2.9,2.8,6.4,4.9,10.6,6.5,4.5,1.7,9.1,2.7,13.8,2.9,4.9.2,9.6-.2,14-1.3,4.9-1.1,9.4-2.7,13.5-4.7,4.4-2.2,8.5-4.8,12.2-7.7-4.2-3.6-8.1-7.3-11.5-11.1-4.1-4.4-7.9-8.9-11.4-13.4-3.8-4.9-7.3-9.9-10.3-14.7-3.7-5.7-6.4-10.8-8.3-15.1ZM916.24,578.17c9.2-3.5,16.5-7.9,22-13,5.6-5.2,9.4-10.4,11.5-15.6,2-4.2,2.9-8.6,2.7-13.3-.1-4.8-1.7-8.7-4.8-11.9-1.6-1.7-3.6-3-5.9-3.8-2.3-.8-4.7-1.2-7.2-1.2s-4.8.3-7.2.9c-2.7.6-4.9,1.4-6.5,2.2-5.3,2.8-8.9,6.5-10.9,11.1s-2.8,9.5-2.4,14.9c.4,5.7,1.3,11,2.9,15.9,1.8,5.4,3.7,10,5.8,13.8Z"/><path class="cls-1" d="M1206.54,566.17l-1.7.4c-2.1-7.1-6.5-12.8-13.1-17.3s-14-6.7-22.3-6.7h-5.8c-1.7,0-3.1.5-4.2,1.6-1.1,1-1.7,2.3-1.7,3.8v86.6c0,2.8,1.1,5.1,3.3,7.1,2.2,2,4.9,3,8,3,.4,0,.6.2.6.5v1.1c0,.3-.2.5-.6.5h-39.6c-.4,0-.7-.2-.7-.5v-1.1c0-.3.2-.5.7-.5,3.1,0,5.8-1,8-3s3.3-4.3,3.3-7.1v-86.6c0-1.5-.6-2.7-1.8-3.8s-2.6-1.6-4.3-1.6h-6.7c-8.4,0-15.9,2.2-22.7,6.6-6.7,4.4-11.3,10.1-13.7,17.2l-1.8-.4c-.4-.1-.5-.3-.4-.7l8.5-24.5c.1-.2.3-.4.6-.4h100.2c.3,0,.5.1.6.4l7.5,24.6c.4.4.3.7-.2.8Z"/><path class="cls-1" d="M1309.34,630.77c.4,0,.6.2.6.5-.1,2.1-.4,4.2-.9,6.2-.6,2-1.4,4-2.6,5.9s-2.9,3.5-5.2,4.6c-2.3,1.2-4.9,1.7-8,1.7-4,0-7.6-1.3-10.8-3.8-3.2-2.5-5.6-6.6-7.2-12-.8-2.7-2.1-7.7-4.1-15s-3.1-11.6-3.5-13c-.9-3.3-1.7-6-2.4-8.2-.7-2.2-1.5-4.7-2.5-7.3-.9-2.6-1.9-4.8-2.7-6.5-.9-1.7-1.9-3.4-3.1-5-1.2-1.7-2.4-3-3.6-3.8-1.3-.9-2.7-1.5-4.3-1.9-1.6-.4-3.3-.5-5.2-.2-1.8.3-3.8,1.8-5.9,4.5-3.2,4.1-4.8,8.8-4.8,14.2v42.8c0,2.8,1.1,5.1,3.3,7.1,2.2,2,4.9,3,8,3,.4,0,.6.2.6.5v1.1c0,.3-.2.5-.6.5h-37.2c-.4,0-.7-.2-.7-.5v-1.1c0-.3.2-.5.7-.5,3.1,0,5.8-1,8-3s3.3-4.3,3.3-7.1v-97.4c0-.4-.3-.6-.8-.5l-14,3.9c-.6.1-.8-.1-.8-.5v-1c0-.2.1-.3.4-.4l28.8-8.2c.6-.1.8.1.8.5v49c0,.3.2.5.5.5s.5,0,.6-.3c1.7-3,3.9-5.5,6.8-7.6,2.9-2,6.2-3,10.1-3,3.1,0,5.9.4,8.5,1.1s4.9,1.7,6.9,3c2,1.2,3.8,2.9,5.5,4.9s3.1,4.1,4.3,6.2c1.2,2.1,2.3,4.7,3.4,7.6,1.1,2.9,2,5.7,2.7,8.4s1.5,5.8,2.3,9.2c.5,2.2,1.6,6.4,3.3,12.4,1.7,6,2.6,9.3,2.7,9.7,1.5,5.3,2.8,9,4,10.9,1.1,2,2.6,2.9,4.5,2.9,1.3,0,2.6-.5,3.6-1.6,1.1-1.1,2-2.4,2.6-4s1.1-3.1,1.5-4.7c.3-1.5.5-2.9.6-4.2,0-.3.2-.5.7-.5h1.3Z"/><path class="cls-1" d="M1388.14,589.07c.4.6.2,1.1-.5,1.4l-51.7,26.5c-1.3.6-2.2,1.6-2.6,2.7-.5,1.2-.5,2.4,0,3.6,3,7.5,7.1,13.3,12.2,17.6s10.4,6,15.7,5.2c4.9-.7,9-2.4,12.4-5,3.3-2.6,6.9-6.9,10.7-13,.2-.3.5-.4.8-.2l1.8.9c.4.2.5.4.2.7-3.5,6.3-8.1,11.2-13.9,14.9-5.7,3.6-12.2,5.4-19.4,5.4s-13.8-1.8-19.8-5.4c-6.1-3.6-10.9-8.5-14.4-14.7s-5.3-13-5.3-20.3,1.8-14.1,5.3-20.3,8.4-11.1,14.4-14.7c6.1-3.6,12.7-5.4,19.8-5.4s13.4,1.7,19.4,5.2c5.9,3.4,10.7,8.1,14.3,13.9l.6,1ZM1373.84,595.17c.3-.1.4-.4.2-.7-3.1-7.2-7.1-12.8-12.1-16.8s-10.1-5.6-15.3-4.9c-4.3.6-7.9,2.9-10.9,6.8-3,3.9-4.9,8.7-5.8,14.5s-.8,12.1.4,19c.1.5.3,1.6.7,3,.1.5.4.6.9.4l41.9-21.3Z"/><path class="cls-1" d="M1596.84,540.97v1c0,.3-.2.5-.6.5-3.5,0-6.7.9-9.5,2.7s-4.8,4.2-5.9,7.2l-35.7,97c-.1.2-.3.4-.5.4h-4c-.3,0-.5-.1-.6-.4l-25.7-69.9c-.1-.2-.2-.4-.5-.4s-.5.1-.6.4l-25.7,69.9c-.1.2-.3.4-.6.4h-4c-.2,0-.4-.1-.5-.4l-35.8-97.4c-1.1-2.9-3-5.2-5.7-6.9-2.7-1.8-5.8-2.6-9.2-2.6-.4,0-.6-.2-.6-.5v-1c0-.4.2-.6.6-.6h39.6c.4,0,.6.2.6.6v1c0,.3-.2.5-.6.5-2.6,0-4.6.9-6.2,2.8-1.5,1.9-1.9,3.9-1.1,6.1l27.9,76.1c.1.2.3.4.6.4s.5-.1.6-.4l19.3-52.6c.1-.2.1-.4,0-.7l-8.1-22.2c-1.1-2.9-3-5.2-5.7-6.9-2.7-1.8-5.8-2.6-9.2-2.6-.4,0-.6-.2-.6-.5v-1c0-.4.2-.6.6-.6h39.6c.4,0,.6.2.6.6v1c0,.3-.2.5-.6.5-2.6,0-4.6.9-6.2,2.8-1.5,1.9-1.9,3.9-1.1,6.1l27.9,76.1c.1.2.3.4.6.4s.5-.1.6-.4l27.8-75.8c.8-2.3.5-4.4-1.1-6.3-1.6-1.9-3.7-2.9-6.4-2.9-.4,0-.6-.2-.6-.5v-1c0-.4.2-.6.6-.6h25.2c.3,0,.5.2.5.6Z"/><path class="cls-1" d="M1605.94,574.47c6.1-3.6,12.7-5.4,19.8-5.4s13.8,1.8,19.8,5.4c6.1,3.6,10.9,8.5,14.4,14.7s5.3,13,5.3,20.3-1.8,14.1-5.3,20.3-8.4,11.1-14.4,14.7c-6.1,3.6-12.7,5.4-19.8,5.4s-13.8-1.8-19.8-5.4c-6.1-3.6-10.9-8.5-14.4-14.7s-5.3-13-5.3-20.3,1.8-14.1,5.3-20.3,8.3-11.1,14.4-14.7ZM1633.04,646.07c4.3-.6,8-2.9,11-6.8s5-8.7,5.9-14.5.8-12.1-.4-19c-2-10.1-6-18.3-12.1-24.8-6.1-6.4-12.4-9.1-18.9-8.2-4.3.6-7.9,2.9-10.9,6.8-3,3.9-4.9,8.7-5.8,14.5s-.8,12.1.4,19c2,10.1,6,18.4,12.1,24.8,5.9,6.5,12.2,9.2,18.7,8.2Z"/><path class="cls-1" d="M1744.94,572.27c.5.1.6.3.4.7l-9.8,16.2c-.1.2-.3.3-.5.3-.3,0-.4-.2-.5-.4-1.8-6.2-4.8-10.4-9-12.8-4.2-2.3-9.1-2.5-14.7-.6-4.4,1.5-7.8,4.1-10.4,7.6s-3.9,7.4-3.9,11.6v39.6c0,2.8,1.1,5.1,3.3,7.1,2.2,2,4.9,3,8,3,.4,0,.6.2.6.5v1.1c0,.3-.2.5-.6.5h-37.2c-.4,0-.7-.2-.7-.5v-1.1c0-.3.2-.5.7-.5,3.1,0,5.8-1,8-3s3.3-4.3,3.3-7.1v-58c0-.4-.3-.6-.8-.5l-14,3.8c-.6.1-.8-.1-.8-.5v-1c0-.2.1-.4.4-.5l28.8-8.2c.6-.1.8.1.8.5v11.6c0,.2.1.4.4.5s.5,0,.7-.2c3.1-3.6,6.6-6.4,10.3-8.5,3.7-2,7.7-3.3,11.8-3.9,4.1-.5,8.2-.5,12.3-.1,4.2.6,8.5,1.5,13.1,2.8Z"/><path class="cls-1" d="M1832.04,636.07c.4,0,.6.2.6.5-.2,3.8-1.8,7-5,9.5s-7.1,3.7-11.8,3.7c-5.1,0-9-1.8-11.6-5.4-.2-.4-.5-.4-.8-.1-.4.3-1.1.7-2,1.2-5.8,3-11.8,4.4-18,4.4-7.1,0-13.8-1.8-19.8-5.4-6.1-3.6-10.9-8.5-14.4-14.7s-5.3-13-5.3-20.3,1.8-14.1,5.3-20.3,8.4-11.1,14.4-14.7c6.1-3.6,12.7-5.4,19.8-5.4,6,0,11.7,1.3,17.2,4,.2.1.4.1.6,0s.2-.2.2-.4v-35.7c0-.4-.2-.6-.8-.5l-14.1,3.9c-.5.1-.8-.1-.8-.5v-1c0-.2.1-.4.4-.5l28.8-8.2c.5-.1.8.1.8.5v101.1c0,9.2,2,13.9,6.1,13.9,2.1,0,4-1,5.7-2.9,1.6-2,2.5-4,2.6-6.2,0-.3.2-.4.6-.4h1.3v-.1ZM1790.84,647.07c1.1-.1,1.9-.3,2.4-.4.6-.1,1.4-.5,2.6-1.1s2.1-1.3,2.8-2.1c.7-.8,1.3-2.1,1.8-3.7.6-1.7.8-3.6.8-5.8v-42.7c0-5.8-2.6-10.5-7.7-14.1s-10.9-4.7-17.2-3.3h-.2l-.2.1c-6.5,1.5-11.3,6.1-14.5,13.8s-3.8,16.5-1.8,26.5c2,10.1,6,18.4,12.1,24.8,6.3,6.3,12.6,9,19.1,8Z"/><path class="cls-1" d="M879.27,432.71c101.61,35.25,246.86,37.22,360.22,5.31-385.47,157.81-564.89-148.28-917.53-144.61-1.24.05-1.46.12,1.73-.34.35-.05.74-.1,1.17-.16,177.93-39.52,382.72,73.92,554.42,139.81Z"/><path class="cls-1" d="M284.96,280.89c473.63-157.09,674.59,333.98,1138.01,34.19-470.47,335.44-670.51-157.73-1138.01-34.19Z"/><path class="cls-1" d="M894.49,352.3c212.88,94.58,490.87-132.89,653.18-78.73-158.53-22.72-420.86,199.84-653.18,78.73Z"/><path class="cls-1" d="M818.71,295.52c295.72,125.48,445.85-140.71,714.59-29.64-229.71-78.29-451.88,183.56-714.59,29.64Z"/></g></svg>